<svg xmlns="http://www.w3.org/2000/svg" viewBox="0 0 390 844" role="img" aria-label="FrameID على الهاتف">
  <rect width="390" height="844" fill="#0b0d12"/>
  <rect x="18" y="24" width="354" height="796" rx="44" fill="#111720" stroke="#2d3340"/>
  <rect x="44" y="62" width="302" height="70" rx="26" fill="#171d27"/>
  <circle cx="82" cy="97" r="18" fill="#f3cf73"/>
  <rect x="116" y="86" width="112" height="14" rx="7" fill="#fff7e8" opacity="0.9"/>
  <rect x="116" y="108" width="158" height="10" rx="5" fill="#fff7e8" opacity="0.34"/>
  <rect x="44" y="158" width="302" height="116" rx="26" fill="#f3cf73" opacity="0.16"/>
  <rect x="68" y="184" width="174" height="18" rx="9" fill="#fff7e8" opacity="0.9"/>
  <rect x="68" y="218" width="220" height="12" rx="6" fill="#fff7e8" opacity="0.34"/>
  <rect x="44" y="296" width="144" height="112" rx="24" fill="#ffffff" opacity="0.06"/>
  <rect x="202" y="296" width="144" height="112" rx="24" fill="#ffffff" opacity="0.06"/>
  <rect x="44" y="430" width="302" height="182" rx="28" fill="#ffffff" opacity="0.05"/>
  <rect x="70" y="460" width="136" height="14" rx="7" fill="#fff7e8" opacity="0.84"/>
  <rect x="70" y="496" width="228" height="10" rx="5" fill="#fff7e8" opacity="0.28"/>
  <rect x="70" y="526" width="196" height="10" rx="5" fill="#fff7e8" opacity="0.2"/>
  <rect x="44" y="724" width="302" height="58" rx="29" fill="#0f131b" stroke="#2d3340"/>
  <rect x="66" y="738" width="82" height="30" rx="15" fill="#f3cf73"/>
  <rect x="206" y="746" width="102" height="12" rx="6" fill="#fff7e8" opacity="0.38"/>
</svg>
